<svg xmlns="http://www.w3.org/2000/svg" xmlns:xlink="http://www.w3.org/1999/xlink" width="768" height="24" viewBox="0 0 768 24">
  <metadata><?xpacket begin="﻿" id="W5M0MpCehiHzreSzNTczkc9d"?>
<x:xmpmeta xmlns:x="adobe:ns:meta/" x:xmptk="Adobe XMP Core 5.6-c142 79.160924, 2017/07/13-01:06:39        ">
   <rdf:RDF xmlns:rdf="http://www.w3.org/1999/02/22-rdf-syntax-ns#">
      <rdf:Description rdf:about=""/>
   </rdf:RDF>
</x:xmpmeta>
                                                                                                    
                                                                                                    
                                                                                                    
                                                                                                    
                                                                                                    
                                                                                                    
                                                                                                    
                                                                                                    
                                                                                                    
                                                                                                    
                                                                                                    
                                                                                                    
                                                                                                    
                                                                                                    
                                                                                                    
                                                                                                    
                                                                                                    
                                                                                                    
                                                                                                    
                                                                                                    
                           
<?xpacket end="w"?></metadata>
<defs>
    <style>
      .cls-1 {
        fill-rule: evenodd;
        filter: url(#filter);
      }
    </style>
    <filter id="filter" x="1" y="0" width="768" height="24" filterUnits="userSpaceOnUse">
      <feFlood result="flood" flood-color="#fff"/>
      <feComposite result="composite" operator="in" in2="SourceGraphic"/>
      <feBlend result="blend" in2="SourceGraphic"/>
    </filter>
  </defs>
  <path id="Фигура_1" data-name="Фигура 1" class="cls-1" d="M769,24H1V10C9.4,7.815,13.386-1.059,22,1c8.795,2.346,9.113,7.85,20,9C46.518,6.267,53.456-.818,60,1c8.981,2.266,9.5,7.8,20,9L95,0c11.1,1.971,11.681,8.539,23,10,5.684-3.216,11.81-11,19-9,8.744,2.317,9.315,7.826,20,9L172,0c10.911,1.994,11.754,8.551,23,10,5.734-3.253,11.594-11.1,19-9,8.795,2.346,9.113,7.85,20,9L249,0c11.02,2.028,11.522,8.628,23,10,6.447-3.37,9.611-7.107,17-10,8.549,3.352,10.767,8.784,21,10,6.017-3.126,11.571-10.99,19-9,8.756,2.3,9.45,7.815,20,9L364,0c11.1,1.971,11.681,8.539,23,10,5.684-3.216,11.81-11,19-9,8.744,2.317,9.315,7.826,20,9L441,0c10.911,1.994,11.754,8.551,23,10,5.734-3.253,11.594-11.1,19-9,8.608,2.293,8.737,7.738,19,9,5.981-3.094,11.767-10.917,19-9,8.835,2.286,9.514,7.807,20,9L556,0c11.1,1.971,11.681,8.539,23,10,5.684-3.216,11.81-11,19-9,8.744,2.317,9.315,7.826,20,9L633,0c10.911,1.994,11.754,8.551,23,10,5.734-3.253,11.594-11.1,19-9,8.795,2.346,9.113,7.85,20,9L710,0c10.877,2.035,11.54,8.635,23,10L748,0c10.4,1.77,11.671,7.6,21,10V24Z" transform="translate(-1)"/>
</svg>
